<?xml version="1.0" standalone="no"?><!DOCTYPE svg PUBLIC "-//W3C//DTD SVG 1.1//EN" "http://www.w3.org/Graphics/SVG/1.1/DTD/svg11.dtd"><svg t="1588761806111" class="icon" viewBox="0 0 1024 1024" version="1.1" xmlns="http://www.w3.org/2000/svg" p-id="2336" width="32" height="32" xmlns:xlink="http://www.w3.org/1999/xlink"><defs><style type="text/css"></style></defs><path d="M877.4 317.1c36.7-81.7 43-147.4 10.4-179.9-32.5-32.5-98-26.3-179.4 10.2C649.9 115.9 583 98 512 98 283.4 98 98 283.4 98 512c0 71.3 18 138.3 49.7 196.9-35.9 80.7-41.8 145.6-9.5 177.9 32.3 32.3 97.4 26.3 178.3-9.7C374.8 908.3 441.3 926 512 926c228.6 0 414-185.4 414-414 0-70.5-17.6-136.8-48.6-194.9z m-23.6-145.9c18.4 18.4 16.1 55-3 102.9-27.3-38.8-61-72.7-99.7-100.1 47.9-18.9 84.4-21.2 102.7-2.8zM146 512c0-202.1 163.9-366 366-366 50.5 0 98.6 10.2 142.4 28.7 15.9 6.7 31.3 14.6 46 23.4 51.9 31.2 95.4 74.9 126.3 126.9-43.8 80.7-121.4 181.4-220.3 280.3-99.5 99.5-200.8 177.4-281.7 221.1-51.7-30.9-95.1-74.1-126.2-125.7-8.8-14.7-16.7-30-23.5-45.9-18.7-43.9-29-92.1-29-142.8z m26.2 340.8c-18.2-18.2-16.2-54 2.2-101.1 27.2 38.3 60.8 71.7 99.1 98.8-47.2 18.5-83.1 20.5-101.3 2.3zM512 878c-50.1 0-97.8-10.1-141.2-28.2 83.4-46.6 178.2-119.2 269.5-210.5 90.8-90.8 163-185 209.7-268.1 18 43.4 28 90.9 28 140.8 0 202.1-163.9 366-366 366z" p-id="2337" fill="#8a8a8a"></path><path d="M659 686c-34.8 0-63 28.2-63 63s28.2 63 63 63 63-28.2 63-63-28.2-63-63-63z m0 78c-8.3 0-15-6.7-15-15s6.7-15 15-15 15 6.7 15 15-6.7 15-15 15zM508 227c-59.6 0-108 48.4-108 108s48.4 108 108 108 108-48.4 108-108-48.4-108-108-108z m0 168c-33.1 0-60-26.9-60-60s26.9-60 60-60 60 26.9 60 60-26.9 60-60 60zM363 530c-38.7 0-70 31.3-70 70s31.3 70 70 70 70-31.3 70-70-31.3-70-70-70z m0 92c-12.2 0-22-9.8-22-22s9.8-22 22-22 22 9.8 22 22-9.8 22-22 22z" p-id="2338" fill="#8a8a8a"></path></svg>