<?xml version="1.0" standalone="no"?><!DOCTYPE svg PUBLIC "-//W3C//DTD SVG 1.1//EN" "http://www.w3.org/Graphics/SVG/1.1/DTD/svg11.dtd"><svg t="1588917053531" class="icon" viewBox="0 0 1024 1024" version="1.1" xmlns="http://www.w3.org/2000/svg" p-id="4275" width="64" height="64" xmlns:xlink="http://www.w3.org/1999/xlink"><defs><style type="text/css"></style></defs><path d="M660.343 872.004a307.95 307.95 0 0 1-90.112-13.482 305.562 305.562 0 0 0 20.31-274.262 299.895 299.895 0 0 0-63.318-95.573 292.864 292.864 0 0 0-144.315-80.794 314.027 314.027 0 1 1 277.435 464.111z m111.412-671.573a99.226 99.226 0 0 1-94.14 8.738 102.775 102.775 0 0 1 45.5-84.275 99.226 99.226 0 0 1 94.14-8.738 102.707 102.707 0 0 1-45.5 84.104z m-273.067-5.803a159.71 159.71 0 0 1-70.793-130.935 153.6 153.6 0 0 1 146.296 13.653 159.676 159.676 0 0 1 70.792 130.901 154.18 154.18 0 0 1-146.466-13.79z m86.767 506.675a273.067 273.067 0 0 1-42.633 147.218A265.865 265.865 0 0 1 318.43 972.868a271.565 271.565 0 0 1 0-543.061 265.694 265.694 0 0 1 52.429 5.222 270.54 270.54 0 0 1 214.425 266.104zM359.424 469.436a228.898 228.898 0 0 0-40.96-3.653 235.52 235.52 0 0 0 0 471.04 230.4 230.4 0 0 0 192.205-103.97 237.431 237.431 0 0 0 39.492-131.618 234.598 234.598 0 0 0-190.908-232.004z m18.807 220.808l-15.564-1.33a398.095 398.095 0 0 0 10.786-9.422c28.501-24.507 73.625-63.42 109.773-94.447a206.746 206.746 0 0 1 35.771 117.726z m-39.697-29.56l9.626-111.718 3.925-45.295 0.273-3.106h0.205a199.953 199.953 0 0 1 107.588 56.56c-29.49 25.019-70.11 59.733-99.976 85.128-8.363 6.826-15.701 13.107-21.811 18.125z m-20.992 244.873l13.654-157.013 100.318 121.788a200.67 200.67 0 0 1-114.074 35.055zM202.07 535.69a203.947 203.947 0 0 1 114.518-37.82l-13.824 159.914zM120.9 666.795a205.824 205.824 0 0 1 53.863-107.452l100.454 121.822z m33.075 151.381a205.483 205.483 0 0 1-36.044-115.2L272.35 717.21zM281.6 902.144a199.543 199.543 0 0 1-104.516-55.945L295.15 745.54z m118.272-172.612l115.78 9.796a206.54 206.54 0 0 1-31.47 77.21 199.578 199.578 0 0 1-25.191 30.72l-99.84-121.105c9.148 0.512 22.323 1.57 40.55 3.208z" fill="#0CB05B" p-id="4276"></path></svg>