<?xml version="1.0" standalone="no"?><!DOCTYPE svg PUBLIC "-//W3C//DTD SVG 1.1//EN" "http://www.w3.org/Graphics/SVG/1.1/DTD/svg11.dtd"><svg t="1588920489167" class="icon" viewBox="0 0 1024 1024" version="1.1" xmlns="http://www.w3.org/2000/svg" p-id="6703" width="32" height="32" xmlns:xlink="http://www.w3.org/1999/xlink"><defs><style type="text/css"></style></defs><path d="M793.6 1024H226.133c-72.533 0-128-55.467-128-128V490.667c-4.267-72.534 51.2-132.267 123.733-132.267h38.4C256 341.333 256 324.267 256 307.2V256C256 115.2 371.2 0 512 0s256 115.2 256 256v51.2c0 17.067 0 34.133-4.267 51.2h34.133c72.534 0 128 55.467 128 128v405.333c4.267 72.534-51.2 132.267-123.733 132.267H793.6zM460.8 704v115.2c0 29.867 21.333 51.2 51.2 51.2s51.2-21.333 51.2-51.2V704c34.133-17.067 51.2-51.2 51.2-89.6 0-55.467-46.934-102.4-102.4-102.4-55.467 0-102.4 46.933-102.4 102.4 0 38.4 17.066 72.533 51.2 89.6z m204.8-448c0-85.333-68.267-153.6-153.6-153.6S358.4 170.667 358.4 256v102.4h307.2V256z" p-id="6704" fill="#bfbfbf"></path></svg>