<?xml version="1.0" standalone="no"?><!DOCTYPE svg PUBLIC "-//W3C//DTD SVG 1.1//EN" "http://www.w3.org/Graphics/SVG/1.1/DTD/svg11.dtd"><svg t="1588918462210" class="icon" viewBox="0 0 1024 1024" version="1.1" xmlns="http://www.w3.org/2000/svg" p-id="6425" width="32" height="32" xmlns:xlink="http://www.w3.org/1999/xlink"><defs><style type="text/css"></style></defs><path d="M64 512a128 128 0 0 1 128-128h640a128 128 0 0 1 128 128v384a128 128 0 0 1-128 128H192a128 128 0 0 1-128-128z m384 238.72V832a64 64 0 1 0 128 0v-81.28a128 128 0 1 0-128 0z" fill="#52D595" p-id="6426"></path><path d="M512 0a320 320 0 0 1 320 320h-128a192 192 0 0 0-384 0H192a320 320 0 0 1 320-320z" fill="#1FADE5" p-id="6427"></path></svg>