<?xml version="1.0" standalone="no"?><!DOCTYPE svg PUBLIC "-//W3C//DTD SVG 1.1//EN" "http://www.w3.org/Graphics/SVG/1.1/DTD/svg11.dtd"><svg t="1588918493045" class="icon" viewBox="0 0 1024 1024" version="1.1" xmlns="http://www.w3.org/2000/svg" p-id="8028" width="32" height="32" xmlns:xlink="http://www.w3.org/1999/xlink"><defs><style type="text/css"></style></defs><path d="M352.64 615.04c-81.28 128-292.48 192-292.48 192A99.2 99.2 0 0 0 0 896v64a64 64 0 0 0 64 64h896a64 64 0 0 0 64-64v-64a99.84 99.84 0 0 0-60.16-87.04s-210.56-68.48-291.84-192A217.6 217.6 0 0 1 512 704a217.6 217.6 0 0 1-159.36-89.6z" fill="#21DC9B" p-id="8029"></path><path d="M290.56 246.4C300.8 104.96 348.16 0 512 0s211.2 104.96 221.44 246.4a96 96 0 0 1-6.4 152.32C696.32 536.96 589.44 640 512 640S327.68 536.96 296.96 398.72a96 96 0 0 1-6.4-152.32z" fill="#1FADE5" p-id="8030"></path></svg>