<?xml version="1.0" standalone="no"?><!DOCTYPE svg PUBLIC "-//W3C//DTD SVG 1.1//EN" "http://www.w3.org/Graphics/SVG/1.1/DTD/svg11.dtd"><svg t="1588920452507" class="icon" viewBox="0 0 1024 1024" version="1.1" xmlns="http://www.w3.org/2000/svg" p-id="5587" width="32" height="32" xmlns:xlink="http://www.w3.org/1999/xlink"><defs><style type="text/css"></style></defs><path d="M303.6746642036377 295.3344938384601c0 115.05515830934893 93.27124250685314 208.3253357963623 208.3253357963623 208.3253357963623s208.3253357963623-93.27124250685314 208.3253357963623-208.3253357963623c0-115.05515830934893-93.27124250685314-208.3253357963623-208.3253357963623-208.3253357963623-115.05515830934893 0-208.3253357963623 93.27124250685314-208.3253357963623 208.3253357963623z" fill="#bfbfbf" p-id="5588"></path><path d="M636.1653380186747 504.14973876111287c-35.82939744927953 22.976738023029444-78.44190625800444 36.30013621845442-124.16640303851445 36.30013621845442s-88.33700558923492-13.324463215264734-124.16640303851445-36.301201238294176c-155.99026087044837 51.96125296215739-268.4659411278933 199.13740963873389-268.4659411278933 372.5865407424038 0 10.173069509408418 0.3866022018336742 20.256677352276817 1.1459613475841144 30.234848231008755h782.9685055582883c0.7614891854299644-9.97817087873194 1.1459613475841144-20.061778721600337 1.1459613475841144-30.234848231008755 0-173.45019612350967-112.47355021776538-320.6242227604067-268.4670061477331-372.5854757225641z" fill="#bfbfbf" p-id="5589"></path></svg>